<?xml version="1.0" encoding="utf-8"?>
<!-- Generator: Adobe Illustrator 23.1.1, SVG Export Plug-In . SVG Version: 6.00 Build 0)  -->
<svg version="1.1" id="Layer_1" xmlns="http://www.w3.org/2000/svg" xmlns:xlink="http://www.w3.org/1999/xlink" x="0px" y="0px"
	 viewBox="0 0 1000 250" style="enable-background:new 0 0 1000 250;" xml:space="preserve">
<style type="text/css">
	.st0{fill:#E84335;}
	.st1{fill:#EF7725;}
</style>
<g>
	<path class="st0" d="M218.8,213.9c-3.7,0-4.5-4-4.9-6.9c-0.4-2.9-3.9-21.6-6.8-21.6c-0.6,0-0.9,0.4-1.3,0.7
		c-1.6,1.9-11.1,2.3-13.7,2.3c-2.2,0-10.2,0-11.4,1.7c-0.3,0.4-0.3,0.9-0.3,1.3c0,3.7,2.3,7.3,2.3,11.1c0,2.4-1.7,9.1-4.9,9.1
		c-9.6,0-3.7-21.2-8.8-24c-1.7-0.9-3.7-1.9-3.7-4c0-4,3.7-1.7,3.7-9.1c0-6-0.6-11.9-0.6-18c0-2,1.9-4,3.9-4c7.1,0,5.6,18.9,6.9,23.8
		c0.7,2.9,1.2,4.6,4.8,4.6c4.6,0,9.2-1.3,14-1.3c2.4,0,6.2,0.7,8.4,2.2l0.1-0.3c0.1-5.3-4.6-13.5-4.6-20.6c0-2.2,1.4-6,3.9-6
		c3.3,0,4.6,1.4,5.2,4.6c2,10.9,12.8,36.4,12.8,45.1C223.8,207.5,223.1,213.9,218.8,213.9z"/>
	<path class="st0" d="M253.9,217.5c-9.2,0-15.1-5.8-15.1-14.8c0-11.7,10.2-25.2,22.6-25.2c2,0,3,1.2,4.3,1.2c1.4,0,2.9-0.9,4.5-0.9
		c6.9,0,8.6,6.2,8.6,12.1C278.9,205.1,270.3,217.5,253.9,217.5z M257.6,190.5c-3.9,0-6.9,6.2-6.9,9.5v2c0,3,1.9,4.3,4.9,4.3
		c1.2,0,3.9,0,3.9-1.7c0-1-0.6-1.9-0.6-2.9c0-3.2,2.2-6.3,2.2-8.6C261.1,191.4,259.1,190.5,257.6,190.5z"/>
	<path class="st0" d="M325.6,197.6c0,5,3.6,8.6,8.6,8.6c3.9,0,7.1-2.6,10.9-2.6c3,0,5.6,1.4,5.6,4.9c0,3.9-13,8.2-16.3,8.2
		c-5,0-10.7-1.3-14.3-5.2c-4.3-4.5-3.6-15.3-7.8-15.3c-2.7,0-17.6,1.4-19.6,2.2c-0.4,0.1-0.9,0.3-1.4,0.3c-2.4,0-4.6-3-4.6-5.5
		c0-9.5,29.7,0.6,30.1-12.1c0-1.2-0.1-2.2-0.1-3.2c0-2.7,0.9-9.5,4.6-9.5c2.7,0,6.5,2.9,6.5,5.8c0,2.2-2.3,4.6-2.3,6.9
		c0,2.6,3.7,2.7,5.6,2.7c5.6,0,11.4-0.9,17.1-0.9c1.3,0,5.9-0.1,5.9,2C354.2,195.6,325.6,187.1,325.6,197.6z"/>
	<path class="st0" d="M389.8,192.3c0,1.6,8.5,3.5,8.5,10.2c0,7.5-14.4,17.7-21.5,17.7c-4.6,0-12.8-4.3-12.8-9.6c0-2.9,2-3.5,4.3-3.5
		c3.3,0,6.6,2,9.9,2c1.4,0,8.4-2.4,8.4-4c0-2.3-9.4-3.3-11.5-4.6c-3.9-2.3-8.8-8.2-8.8-12.8c0-7.2,15.5-14.3,21.7-14.3
		c3.7,0,13.4,0.4,13.4,5.9C401.5,190,389.8,189.5,389.8,192.3z"/>
	<path class="st0" d="M465.3,219.9c-4.6,0-9.2-1.2-12.5-4.6c-0.9-0.7-4.6-6.5-4.9-6.5c-0.3,0-3.2,2.6-3.9,2.9
		c-3.6,2.2-8.2,2.6-12.4,2.6c-9.2,0-15.7-4.5-15.7-14.1c0-5.2,3.9-17.7,9.1-19.7c6.5-2.4,11.7-6.2,18.9-6.2c3.2,0,8.2,1.4,10.1,4
		c3.6,0.7,7.2,1.9,7.2,6.3c0,4.9-1.9,9.8-1.9,14.8c0,16,13.5,6.5,13.5,15.3C472.8,218.6,468.6,219.9,465.3,219.9z M444.7,193.7
		c-1.4,0-3.6,2.3-5.9,2.3c-1.4,0-3.6-1.4-3.6-3c0-2.6,7.2-4.2,7.2-7.2c0-0.9-1-1-1.6-1c-5.9,0-14.1,8.5-14.1,14.3
		c0,3.6,2.9,4.9,6,4.9c3.6,0,14.3-2.9,14.3-7.6C447,194.6,446.6,193.7,444.7,193.7z"/>
	<path class="st0" d="M534.8,214.7c-11.7,0-10.7-9.9-14.3-9.9c-3.5,0-7.9,10.2-22.9,10.2c-7.3,0-14.8-2.3-14.8-10.9
		c0-3.9,0-16.8-1.7-19.9c-0.4-0.9-0.7-1.6-0.7-2.6c0-2.7,2.2-4,4.8-4c12.1,0,1.4,27.4,11.9,27.4c10.8,0,19.7-7.2,19.7-18.4
		c0-1.7-0.6-3.5-0.6-5.2c0-2,1.6-3.5,3.5-3.5c7.6,0,5.8,22.3,15.1,24.9c4.3,1.2,15-0.1,18,1.6c1.6,1,5.2,3.7,5.2,5.8
		C558,214.2,537.8,214.7,534.8,214.7z"/>
	<path class="st0" d="M606.6,213.7c-8.4,0-16.8,0.4-25.3,0.4c-7.2,0-17.4-1.2-17.4-10.5c0-14.7,16-28.9,30.2-28.9
		c6.6,0,14.4,2.9,14.4,10.7c0,3.6-2.9,8.2-6.9,8.2c-9.8,0-3-7.1-10.4-7.1c-5.9,0-16.8,7.9-16.8,14.3c0,5.3,15.8,4,18.9,4
		c3.3,0,25.2-0.9,25.2,4.5C618.4,215.5,610.6,213.7,606.6,213.7z"/>
	<path class="st0" d="M688,212.1c-9.6,2.3-19.7,4.6-29.7,4.6c-9.2,0-20.4-5.2-25.2-13.4c-3.7,0-10.5-0.6-10.5-5.8
		c0-4.8,5.6-3.7,8.6-3.7c2,0,3.2-2,3.9-3.6c4.5-9.4,11.5-17,22.6-17c5.9,0,10.8,2.7,10.8,9.2c0,16.6-22.9,15.1-22.9,19
		c0,4.3,12.8,5.5,16,5.5c2.2,0,4.3-0.1,6.3-0.1c4.5-0.3,8.8-0.7,13.1-1.4c2.4-0.4,5.3-1.2,7.8-1.2c1.4,0,6.9-0.3,6.9,2
		C695.7,209.3,690.4,211.7,688,212.1z M653.8,183.5c-3.3,0-8.5,4.9-8.5,7.8c0,0.7,0.7,1,1.4,1c2.6,0,11.8-3.7,11.8-6.5
		C658.6,184.1,655.1,183.5,653.8,183.5z"/>
	<path class="st0" d="M758.9,172.3c-4.2,5.2-8.2,16.4-10.4,22.6c-1.6,4.5-8.2,22.7-14.3,22.7c-3.7,0-12.2-19.7-15.1-23.9
		c-2.3-3.3-20.3-24.2-20.3-24.9c0-2.6,1-4,3.7-4c4.3,0,14,9.9,16.6,13.2c2,2.4,14.4,20.4,16.3,20.4c3.6,0,10.5-39,24.6-39
		c2.9,0,4.8,1.9,4.8,4.8C764.8,166.2,760.2,170.5,758.9,172.3z"/>
	<path class="st0" d="M785.5,209.8c-0.9,2.7-1.9,3.7-4.8,3.7c-3.7,0-6.3-4.2-6.3-7.5c0-2.7,0.7-5.3,1.2-7.9
		c0.6-3.6,0.9-7.2,0.9-10.9c0-3.5,2.2-4.8,5.5-4.8c4,0,5.9,1.3,5.9,5.6C787.8,192.3,786.7,206.2,785.5,209.8z M782.5,168.7
		c-4.6,0-6.5-3.3-6.5-7.5c0-4.5,0.3-9.6,5.6-9.6c2.3,0,6.5,0.7,6.5,3.9C788.1,157.8,785.4,168.7,782.5,168.7z"/>
	<path class="st0" d="M827.9,192.3c0,1.6,8.5,3.5,8.5,10.2c0,7.5-14.4,17.7-21.5,17.7c-4.6,0-12.8-4.3-12.8-9.6c0-2.9,2-3.5,4.3-3.5
		c3.3,0,6.6,2,9.9,2c1.4,0,8.4-2.4,8.4-4c0-2.3-9.4-3.3-11.5-4.6c-3.9-2.3-8.8-8.2-8.8-12.8c0-7.2,15.5-14.3,21.7-14.3
		c3.7,0,13.4,0.4,13.4,5.9C839.6,190,827.9,189.5,827.9,192.3z"/>
	<path class="st0" d="M865.5,209.8c-0.9,2.7-1.9,3.7-4.8,3.7c-3.7,0-6.3-4.2-6.3-7.5c0-2.7,0.7-5.3,1.2-7.9
		c0.6-3.6,0.9-7.2,0.9-10.9c0-3.5,2.2-4.8,5.5-4.8c4,0,5.9,1.3,5.9,5.6C867.8,192.3,866.7,206.2,865.5,209.8z M862.5,168.7
		c-4.6,0-6.5-3.3-6.5-7.5c0-4.5,0.3-9.6,5.6-9.6c2.3,0,6.5,0.7,6.5,3.9C868.1,157.8,865.4,168.7,862.5,168.7z"/>
	<path class="st0" d="M897.5,217.5c-9.2,0-15.1-5.8-15.1-14.8c0-11.7,10.2-25.2,22.6-25.2c2,0,3,1.2,4.3,1.2c1.4,0,2.9-0.9,4.5-0.9
		c6.9,0,8.6,6.2,8.6,12.1C922.4,205.1,913.9,217.5,897.5,217.5z M901.2,190.5c-3.9,0-6.9,6.2-6.9,9.5v2c0,3,1.9,4.3,4.9,4.3
		c1.2,0,3.9,0,3.9-1.7c0-1-0.6-1.9-0.6-2.9c0-3.2,2.2-6.3,2.2-8.6C904.7,191.4,902.7,190.5,901.2,190.5z"/>
	<path class="st0" d="M987.9,219.8c-11.1,0-7.6-21-13.2-21c-5.5,0-9.6,13.4-15.7,13.4c-7.3,0,0.1-19.4-11.1-19.4
		c-5.3,0-11.4,4.6-14.8,4.6c-3.2,0-4.6-2.3-4.6-5.2c0-4.9,17.3-10.8,22-10.8c8.9,0,10.7,9.9,14.3,9.9c2.2,0,5.9-6.6,14-6.6
		c6,0,9.6,9.4,11.2,14.1c0.9,2.7,4.2,13,4.2,15.4C994.1,216.9,990.5,219.8,987.9,219.8z"/>
</g>
<path class="st1" d="M87.1,2V1.6L10.5,128.8C-2,157,11.2,194.3,44.7,228.5c14.4,14.8,34.7,19,53.8,17.4C56.1,168.4,63.9,83.3,87.1,2
	z"/>
<path class="st0" d="M90.4,4.5l-0.5,1v0.4c-19,82.4-22.3,167.8,24.1,242.9c25-3.5,32.6-20.7,29.6-55.3
	C140.6,158.8,86.9,121.1,90.4,4.5z"/>
</svg>
